<mxfile host="app.diagrams.net" modified="2023-11-12T09:51:44.600Z" agent="Mozilla/5.0 (Windows NT 10.0; Win64; x64) AppleWebKit/537.36 (KHTML, like Gecko) Chrome/119.0.0.0 Safari/537.36" etag="_aq9Japt6MRJuv-hr2cX" version="22.1.0" type="device">
  <diagram name="Страница — 1" id="AIFz6gDUwz3lQGpoxi2S">
    <mxGraphModel dx="2266" dy="862" grid="1" gridSize="10" guides="1" tooltips="1" connect="1" arrows="1" fold="1" page="1" pageScale="1" pageWidth="827" pageHeight="1169" math="0" shadow="0">
      <root>
        <mxCell id="0" />
        <mxCell id="1" parent="0" />
        <mxCell id="qJQSL84nwfB8t6qzRS68-1" value="Клиент" style="shape=umlActor;verticalLabelPosition=bottom;verticalAlign=top;html=1;outlineConnect=0;" parent="1" vertex="1">
          <mxGeometry x="50" y="380" width="80" height="150" as="geometry" />
        </mxCell>
        <mxCell id="qJQSL84nwfB8t6qzRS68-2" value="Сотрудник &lt;br&gt;отдела продаж" style="shape=umlActor;verticalLabelPosition=bottom;verticalAlign=top;html=1;outlineConnect=0;" parent="1" vertex="1">
          <mxGeometry x="670" y="300" width="80" height="150" as="geometry" />
        </mxCell>
        <mxCell id="qJQSL84nwfB8t6qzRS68-3" value="Сотрудник&amp;nbsp;&lt;br&gt;склада" style="shape=umlActor;verticalLabelPosition=bottom;verticalAlign=top;html=1;outlineConnect=0;" parent="1" vertex="1">
          <mxGeometry x="1090" y="300" width="80" height="150" as="geometry" />
        </mxCell>
        <mxCell id="qJQSL84nwfB8t6qzRS68-4" value="Руководитель &lt;br&gt;склада" style="shape=umlActor;verticalLabelPosition=bottom;verticalAlign=top;html=1;outlineConnect=0;" parent="1" vertex="1">
          <mxGeometry x="1420" y="314" width="80" height="150" as="geometry" />
        </mxCell>
        <mxCell id="qJQSL84nwfB8t6qzRS68-9" value="Поставщик" style="shape=umlActor;verticalLabelPosition=bottom;verticalAlign=top;html=1;outlineConnect=0;" parent="1" vertex="1">
          <mxGeometry x="970" y="770" width="80" height="150" as="geometry" />
        </mxCell>
        <mxCell id="CS7ur89Ap3Qdm2Xs11ii-1" value="" style="endArrow=classic;html=1;rounded=0;dashed=1;dashPattern=12 12;" edge="1" parent="1" source="qJQSL84nwfB8t6qzRS68-1">
          <mxGeometry width="50" height="50" relative="1" as="geometry">
            <mxPoint x="550" y="470" as="sourcePoint" />
            <mxPoint x="260" y="400" as="targetPoint" />
          </mxGeometry>
        </mxCell>
        <mxCell id="CS7ur89Ap3Qdm2Xs11ii-2" value="" style="shape=image;verticalLabelPosition=bottom;labelBackgroundColor=default;verticalAlign=top;aspect=fixed;imageAspect=0;image=https://cdn-icons-png.flaticon.com/512/2258/2258853.png;" vertex="1" parent="1">
          <mxGeometry x="289" y="380" width="42" height="42" as="geometry" />
        </mxCell>
        <mxCell id="CS7ur89Ap3Qdm2Xs11ii-3" value="&lt;font style=&quot;font-size: 14px;&quot;&gt;Заявка&lt;/font&gt;" style="text;html=1;align=center;verticalAlign=middle;resizable=0;points=[];autosize=1;strokeColor=none;fillColor=none;" vertex="1" parent="1">
          <mxGeometry x="275" y="438" width="70" height="30" as="geometry" />
        </mxCell>
        <mxCell id="CS7ur89Ap3Qdm2Xs11ii-6" value="" style="endArrow=classic;html=1;rounded=0;" edge="1" parent="1" source="qJQSL84nwfB8t6qzRS68-2">
          <mxGeometry width="50" height="50" relative="1" as="geometry">
            <mxPoint x="550" y="460" as="sourcePoint" />
            <mxPoint x="440" y="550" as="targetPoint" />
          </mxGeometry>
        </mxCell>
        <mxCell id="CS7ur89Ap3Qdm2Xs11ii-7" value="" style="shape=image;verticalLabelPosition=bottom;labelBackgroundColor=default;verticalAlign=top;aspect=fixed;imageAspect=0;image=https://cdn-icons-png.flaticon.com/512/2258/2258853.png;" vertex="1" parent="1">
          <mxGeometry x="389" y="520" width="50" height="50" as="geometry" />
        </mxCell>
        <mxCell id="CS7ur89Ap3Qdm2Xs11ii-8" value="Счёт" style="text;html=1;align=center;verticalAlign=middle;resizable=0;points=[];autosize=1;strokeColor=none;fillColor=none;" vertex="1" parent="1">
          <mxGeometry x="345" y="598" width="50" height="30" as="geometry" />
        </mxCell>
        <mxCell id="CS7ur89Ap3Qdm2Xs11ii-10" value="" style="endArrow=classic;html=1;rounded=0;exitX=0;exitY=0.5;exitDx=0;exitDy=0;" edge="1" parent="1" source="CS7ur89Ap3Qdm2Xs11ii-7" target="qJQSL84nwfB8t6qzRS68-1">
          <mxGeometry width="50" height="50" relative="1" as="geometry">
            <mxPoint x="550" y="460" as="sourcePoint" />
            <mxPoint x="600" y="410" as="targetPoint" />
          </mxGeometry>
        </mxCell>
        <mxCell id="CS7ur89Ap3Qdm2Xs11ii-11" value="" style="endArrow=classic;html=1;rounded=0;dashed=1;dashPattern=12 12;exitX=1;exitY=0.5;exitDx=0;exitDy=0;" edge="1" parent="1" source="CS7ur89Ap3Qdm2Xs11ii-2">
          <mxGeometry width="50" height="50" relative="1" as="geometry">
            <mxPoint x="490" y="422" as="sourcePoint" />
            <mxPoint x="670" y="400" as="targetPoint" />
          </mxGeometry>
        </mxCell>
        <mxCell id="CS7ur89Ap3Qdm2Xs11ii-12" value="" style="endArrow=classic;html=1;rounded=0;" edge="1" parent="1" source="qJQSL84nwfB8t6qzRS68-2">
          <mxGeometry width="50" height="50" relative="1" as="geometry">
            <mxPoint x="890" y="460" as="sourcePoint" />
            <mxPoint x="830" y="380" as="targetPoint" />
          </mxGeometry>
        </mxCell>
        <mxCell id="CS7ur89Ap3Qdm2Xs11ii-13" value="" style="shape=image;verticalLabelPosition=bottom;labelBackgroundColor=default;verticalAlign=top;aspect=fixed;imageAspect=0;image=https://cdn-icons-png.flaticon.com/512/2258/2258853.png;" vertex="1" parent="1">
          <mxGeometry x="846" y="349" width="52" height="52" as="geometry" />
        </mxCell>
        <mxCell id="CS7ur89Ap3Qdm2Xs11ii-14" value="&lt;font style=&quot;font-size: 14px;&quot;&gt;Заявка&lt;br&gt;на&amp;nbsp;&lt;br&gt;сборку&lt;/font&gt;" style="text;html=1;align=center;verticalAlign=middle;resizable=0;points=[];autosize=1;strokeColor=none;fillColor=none;" vertex="1" parent="1">
          <mxGeometry x="846" y="416" width="70" height="60" as="geometry" />
        </mxCell>
        <mxCell id="CS7ur89Ap3Qdm2Xs11ii-15" value="" style="endArrow=classic;html=1;rounded=0;exitX=1;exitY=0.5;exitDx=0;exitDy=0;" edge="1" parent="1" source="CS7ur89Ap3Qdm2Xs11ii-13">
          <mxGeometry width="50" height="50" relative="1" as="geometry">
            <mxPoint x="890" y="460" as="sourcePoint" />
            <mxPoint x="1080" y="380" as="targetPoint" />
          </mxGeometry>
        </mxCell>
        <mxCell id="CS7ur89Ap3Qdm2Xs11ii-17" value="" style="shape=image;verticalLabelPosition=bottom;labelBackgroundColor=default;verticalAlign=top;aspect=fixed;imageAspect=0;image=data:image/png,iVBORw0KGgoAAAANSUhEUgAAAH8AAAB/CAMAAADxY+0hAAAAYFBMVEX///8AAAD09PSpqamwsLBOTk52dnZFRUXg4OANDQ28vLyRkZEwMDDm5uaFhYVhYWHY2NjNzc3Dw8M2NjZoaGju7u4bGxubm5uLi4t+fn5ZWVkpKSk9PT22trZtbW0UFBRbCQlWAAADBUlEQVRoge2aaZeCIBRAkdRcxtLcyrL+/7+cFNxYQlRszpx3P3XI59UnoD5ECAAAAAAAAAAAABASHy0VfmlOf1HaG57f1Rs7gLl6y3K/qzdyADp6AwfQ609e3ENGQ5gMBD7d7GZKP2512iZ73BQbyYBYT/2HSVss3nQb/XXaLvIPB7DZJUgkelH+33jFtgfQn/058iZEpP+VbHOwaQb0Bl5LNwi26AORvn7EQS1QYK/yV6v9h1X+I/6u3/knfgdr0sdt5NeOs/+GP58kZXe/5Q+80sot4539HEWZf9VvSSbF5HpiaY/UgP99I+M2v4q2e3lm/NbdY89evJ1jyG9ZTCeQzHJpvtKfjp5Nk0vp3vsM7HP+7P0H2yndNfNokAn9ydZ+hPLOxMwEdnZmuTW9ZGt/f6rnefvZ3o9SYQL289PONu/p1IAfVaIhsKM/0LgAJvw56QH1+2cSyElM+ekFuCLsiOcdSpUb8pO7TYZOH/XtS7QRP+kAKVLo18//Ej95p3uhH4X/iM34yTu6j2qF3zaUf/pSiVD9+JGTNgPErF8N+MG/iz+PWPCO/qR7Lhxz2s2f3wX6tuC3j18yET4Mzb+cX/K2Yur+w+e/EPrD3fpf7PgcRVPv3Wv8YY+jfUvm/di71JdIVUyZ+pmYFfMPvpJLlSrW+cZ+HDIxy/3jgZLM9PMxi/3hpHvWs/wlH7PUH1hTPmSg97P1+2S5HzO7sh7yOJL0I0IvQYy2/x42nPt9dD/cUEZG457dpuko5qTrn9DUz0K++SNNDFfjWuYng8jV0pOY2yZ+0u5p+bEwZo6fr0yR9lzLT2KYtaR5kzqbNFq6k1TMJJCCJzMU2SKkhODmUsi6WtaePln7u/f/SXi+hhhMYgoSE/JFWBW0clVdopp+CKL+2GOICWhMqO3t4Jci1Slkp8zZaRfBlivYBWERFROzZk2UeUydVULEhX6MFG/8AVA2byXDe4z1eqsfHPkw783+0Cjvh7C/vO/1eGXTC84HnROJFsQAAAAAAAAAAAD8I34BzPgvhbntzI4AAAAASUVORK5CYII=;" vertex="1" parent="1">
          <mxGeometry x="680" y="598" width="90" height="90" as="geometry" />
        </mxCell>
        <mxCell id="CS7ur89Ap3Qdm2Xs11ii-18" value="" style="endArrow=classic;html=1;rounded=0;" edge="1" parent="1">
          <mxGeometry width="50" height="50" relative="1" as="geometry">
            <mxPoint x="1130" y="490" as="sourcePoint" />
            <mxPoint x="780" y="640" as="targetPoint" />
          </mxGeometry>
        </mxCell>
        <mxCell id="CS7ur89Ap3Qdm2Xs11ii-19" value="" style="endArrow=classic;html=1;rounded=0;exitX=0;exitY=0.5;exitDx=0;exitDy=0;" edge="1" parent="1" source="CS7ur89Ap3Qdm2Xs11ii-17">
          <mxGeometry width="50" height="50" relative="1" as="geometry">
            <mxPoint x="890" y="460" as="sourcePoint" />
            <mxPoint x="130" y="570" as="targetPoint" />
            <Array as="points">
              <mxPoint x="280" y="634" />
            </Array>
          </mxGeometry>
        </mxCell>
        <mxCell id="CS7ur89Ap3Qdm2Xs11ii-20" value="&lt;font style=&quot;font-size: 14px;&quot;&gt;Транспортная компания&lt;br&gt;&lt;/font&gt;" style="text;html=1;align=center;verticalAlign=middle;resizable=0;points=[];autosize=1;strokeColor=none;fillColor=none;" vertex="1" parent="1">
          <mxGeometry x="630" y="697" width="180" height="30" as="geometry" />
        </mxCell>
        <mxCell id="CS7ur89Ap3Qdm2Xs11ii-21" value="" style="endArrow=classic;html=1;rounded=0;" edge="1" parent="1" source="qJQSL84nwfB8t6qzRS68-2">
          <mxGeometry width="50" height="50" relative="1" as="geometry">
            <mxPoint x="890" y="460" as="sourcePoint" />
            <mxPoint x="1000" y="210" as="targetPoint" />
          </mxGeometry>
        </mxCell>
        <mxCell id="CS7ur89Ap3Qdm2Xs11ii-22" value="" style="endArrow=classic;html=1;rounded=0;" edge="1" parent="1">
          <mxGeometry width="50" height="50" relative="1" as="geometry">
            <mxPoint x="1090" y="210" as="sourcePoint" />
            <mxPoint x="1430" y="330" as="targetPoint" />
          </mxGeometry>
        </mxCell>
        <mxCell id="CS7ur89Ap3Qdm2Xs11ii-23" value="" style="endArrow=classic;html=1;rounded=0;" edge="1" parent="1">
          <mxGeometry width="50" height="50" relative="1" as="geometry">
            <mxPoint x="1180" y="390" as="sourcePoint" />
            <mxPoint x="1280" y="390" as="targetPoint" />
          </mxGeometry>
        </mxCell>
        <mxCell id="CS7ur89Ap3Qdm2Xs11ii-24" value="" style="endArrow=classic;html=1;rounded=0;" edge="1" parent="1">
          <mxGeometry width="50" height="50" relative="1" as="geometry">
            <mxPoint x="1338" y="389" as="sourcePoint" />
            <mxPoint x="1418" y="388.5" as="targetPoint" />
          </mxGeometry>
        </mxCell>
        <mxCell id="CS7ur89Ap3Qdm2Xs11ii-25" value="" style="shape=image;verticalLabelPosition=bottom;labelBackgroundColor=default;verticalAlign=top;aspect=fixed;imageAspect=0;image=https://cdn-icons-png.flaticon.com/512/2258/2258853.png;" vertex="1" parent="1">
          <mxGeometry x="1288" y="364" width="50" height="50" as="geometry" />
        </mxCell>
        <mxCell id="CS7ur89Ap3Qdm2Xs11ii-26" value="&lt;font style=&quot;font-size: 14px;&quot;&gt;Отчёт &lt;br&gt;о поставке&lt;/font&gt;" style="text;html=1;align=center;verticalAlign=middle;resizable=0;points=[];autosize=1;strokeColor=none;fillColor=none;" vertex="1" parent="1">
          <mxGeometry x="1268" y="414" width="90" height="50" as="geometry" />
        </mxCell>
        <mxCell id="CS7ur89Ap3Qdm2Xs11ii-27" value="" style="shape=image;verticalLabelPosition=bottom;labelBackgroundColor=default;verticalAlign=top;aspect=fixed;imageAspect=0;image=https://cdn-icons-png.flaticon.com/512/2258/2258853.png;" vertex="1" parent="1">
          <mxGeometry x="1019" y="182" width="60" height="60" as="geometry" />
        </mxCell>
        <mxCell id="CS7ur89Ap3Qdm2Xs11ii-28" value="&lt;font style=&quot;font-size: 14px;&quot;&gt;Отчёт&lt;br&gt;о продаже&lt;/font&gt;" style="text;html=1;align=center;verticalAlign=middle;resizable=0;points=[];autosize=1;strokeColor=none;fillColor=none;" vertex="1" parent="1">
          <mxGeometry x="1004" y="242" width="90" height="50" as="geometry" />
        </mxCell>
        <mxCell id="CS7ur89Ap3Qdm2Xs11ii-29" value="" style="endArrow=classic;html=1;rounded=0;" edge="1" parent="1">
          <mxGeometry width="50" height="50" relative="1" as="geometry">
            <mxPoint x="1250" y="520" as="sourcePoint" />
            <mxPoint x="1190" y="450" as="targetPoint" />
          </mxGeometry>
        </mxCell>
        <mxCell id="CS7ur89Ap3Qdm2Xs11ii-30" value="" style="shape=image;verticalLabelPosition=bottom;labelBackgroundColor=default;verticalAlign=top;aspect=fixed;imageAspect=0;image=data:image/png,iVBORw0KGgoAAAANSUhEUgAAAHkAAAB5CAMAAAAqJH57AAAAZlBMVEX///8AAADAwMD19fU6OjpMTEz7+/vb29vs7Oz4+Pjw8PDj4+PU1NRnZ2e2trYXFxfGxsbOzs5CQkKampp/f38xMTGtra2Hh4d0dHQMDAxiYmJUVFSRkZFtbW2np6egoKAdHR0lJSUoFfjHAAAG60lEQVRoge1bh7KjOBAkY4IxGYwD9v//5KEBNCMjgfzM263bclftBSNoJE1PQmsYX3zxxRdf/DK8qGh9xTW/LaLgl3j9q2sOiKQXI3bJvare6wPETWWOeMhmFpymq88m25M2LU0CRzLCoQNKaxfW0LrhM7sr/HMxqGM/X4848GgdPqONkm5eRvN8TELDSGBSL8NgSZLhLZMbH37qarlF6NDWF/6cik+iZ/9bCAPhp37872GJKk7u3t8nH/Rz4UtXtSlZu3mCHK/LEKYlJzcv72ktGvUzGmuZ2eJVeCW04AwIxCFB1jz5E3JdrWVXNNTHVaIRD67P6whCdrzlsPiK5NW21iyin7xQ7JINjxxXwoZ1seUDoyLHx61oTdTPfUUWMM+czdPL6fwlONQdPhTUsXhYgoZ8vtWKScyAvWWy7sQ9l8JObmdu7pdEeM2wvjz4ltx0nADYc2M0r3auwMFqUWuXO5+5zS150I9kPWQADYOV93o3hCmSu/OS+hPtQj9raGbD0b/FzuawM8ssADN5082nE3P63m0WGCd3Lge2y46+r7ETEhzMTmaxCgRs0idiSLDersQdSBDVrvkKVzM6eC5dawDI5LZ9q393USHDHy4JM79r+MibRIT1KJM1BH6Bs3XamCkr8Vt0U4ODXt8xsMr69VeI+XflTXbcIG3exPZoLBa7cs1frihwZyOuy99btaUGWYlRpCri8VcLBRH3eN0pM/nMQQ2t7MplsfsTQ3nCx/Y4gDAbzAJw5udWIlGw4svyd2Oy+LNopIPPRQu+1IJfFZkN5oSF6CAue8Qss1LYAci6QnEK+mmT17sWzAO8pMVbqNbCVyGLoLKmq/dsLYndyJgHBMRB893xVFs5A4zgZng+MVdH5c4VzAZz0CXVWuytme8EkHX3qh851MwGqBDJXdh/tWQBjYkY9LPmUFeZGfzeOePT1t3UAD7fbssbbjIPiHhocbeIa3xJqSrfYrZKMueF1xQBkQNNU56zaTGH1BPAE1fTNUgqL3aQtPxlz8oIuMI85JM421sS2CCqtRT1yVQEcqdp09mVRkAVc3Qn9VhrwaIdmF9/Kh0JZIJnThJmLcYBt1hEQBnzEEmxHnPajO+Vz17GVSjUW8btgOds7L5rLJAvmAOf1GNDQSPwjLmHXKVQ2CyXLy6eOAtaH9m5mZOHZw2px+ZISiCtvAEFu1LIrhhRL6+PcN9oP4NGUgpJ5Q0AIUvjNiCsSbopZpshzUS7u1qG8HYLWUOsWDZAKGzSixhi9aiRQT/8t816DNz3S9wYhbyZcYeWoLW4dhf6WUOwlHUIqb5WOyekORnfWqKfNYCsT2QoCPmh3b+zqdaW+lmDz6ZIZH2TrP8G4n7i7Zf6WcOUe8wvMj7jWL/TxUkmZo3qmSOYo8i8vAduJrr10VQTAnRrUJJPYiYYlU80FoUfEBGTfdZZbp+UAs+STi+gaZNzXc2C2Ks+CPOWaXpC+SPJJ21fGBCvyOTABj6Z16vZYuUrchQywaHkU6nA77FIrcpUFdRGh8DMNB1dkGKJ7BS1f86LjbWJiVSHTExm7uCm0ylKgkyOsvezWrIn1bY1BMNbOiQELH0xOP47j89Qm75Gv4BmYZ2j1QuxHchQaX2UC81icCGsCp4zA6i8aW9KqMduiccyaWfbzU3Mw2qlJa6Ww12VxafIcxIhpfBJLD+VKVjAm8wG0xqpjyrQGgj56AnMHmxODPohxRzq531mA3oRtMqynuxfIZ/9ONOQDXlagn5oPfYjZga/yEmtwH0fyQDR/5qjfkSZ/ZjZgG4Uf/IsS5p7+sQcl7L9hNlgneox7+HRVMh6x2bkSz9jJ2YDVOpiaBLzbctd9jP2YxahU8V+mb/M/0dmlhToJYx7MxuHRPMj8+7M2vgy78Dcd5rf5/ZmZuFJ7wjHv6PnL/OfZM7+moUZ9WWjZ/1rzNr4Mu/A7NeaLbTdM4OTefo7mcG/5UnynZlzbWaz6jUyLE3mw51V8xrMwVT1u5unRHSYw2SqflXfvCn498HzMV0dvskcpEde8Wv5WfLRvmpW+pDrzB6eTTW7WvuUDTnM5qpOxq0yR3j0JL++eQAyxv5vJ/8womS2E75oz3KreStDkOJRiVbS8Vcwp9jD69YNZQ0hdvPOzWvnUsbsN9ymcv3NleOAPfFTL+zYgjnq+QY5xYfnekf4eGzUJc0fkfmAn8wei+X5Oez0NvdAH93c9ibMdtbx6zdVW/ynmNthbCkb+Bw8Mwc+foVVNMQ+hV9wBnfYR+jpGwdUbrXVtf8EMZ6WOLLmcok9+HLXY/IyWORAFCp3nwPyWwjIl99xc3/rr0NIcOCOPd9HuW/A84dYtBrLfhGh/6F//OKP4T/ZqlSYVRzS/AAAAABJRU5ErkJggg==;fontSize=14;" vertex="1" parent="1">
          <mxGeometry x="1268" y="543" width="55" height="55" as="geometry" />
        </mxCell>
        <mxCell id="CS7ur89Ap3Qdm2Xs11ii-31" value="" style="endArrow=classic;html=1;rounded=0;" edge="1" parent="1">
          <mxGeometry width="50" height="50" relative="1" as="geometry">
            <mxPoint x="1070" y="830" as="sourcePoint" />
            <mxPoint x="1290" y="650" as="targetPoint" />
          </mxGeometry>
        </mxCell>
        <mxCell id="CS7ur89Ap3Qdm2Xs11ii-32" value="&lt;font style=&quot;font-size: 14px;&quot;&gt;Товар&lt;/font&gt;" style="text;html=1;align=center;verticalAlign=middle;resizable=0;points=[];autosize=1;strokeColor=none;fillColor=none;" vertex="1" parent="1">
          <mxGeometry x="1261.5" y="613.5" width="60" height="30" as="geometry" />
        </mxCell>
        <mxCell id="CS7ur89Ap3Qdm2Xs11ii-33" value="" style="endArrow=classic;html=1;rounded=0;" edge="1" parent="1">
          <mxGeometry width="50" height="50" relative="1" as="geometry">
            <mxPoint x="1150" y="680" as="sourcePoint" />
            <mxPoint x="1020" y="760" as="targetPoint" />
          </mxGeometry>
        </mxCell>
        <mxCell id="CS7ur89Ap3Qdm2Xs11ii-34" value="" style="shape=image;verticalLabelPosition=bottom;labelBackgroundColor=default;verticalAlign=top;aspect=fixed;imageAspect=0;image=https://cdn-icons-png.flaticon.com/512/2258/2258853.png;" vertex="1" parent="1">
          <mxGeometry x="1170" y="613.5" width="52" height="52" as="geometry" />
        </mxCell>
        <mxCell id="CS7ur89Ap3Qdm2Xs11ii-35" value="&lt;font style=&quot;font-size: 14px;&quot;&gt;Заявка&lt;/font&gt;" style="text;html=1;align=center;verticalAlign=middle;resizable=0;points=[];autosize=1;strokeColor=none;fillColor=none;" vertex="1" parent="1">
          <mxGeometry x="1100" y="624.5" width="70" height="30" as="geometry" />
        </mxCell>
        <mxCell id="CS7ur89Ap3Qdm2Xs11ii-36" value="" style="endArrow=classic;html=1;rounded=0;" edge="1" parent="1">
          <mxGeometry width="50" height="50" relative="1" as="geometry">
            <mxPoint x="1140" y="490" as="sourcePoint" />
            <mxPoint x="1180" y="600" as="targetPoint" />
          </mxGeometry>
        </mxCell>
        <mxCell id="CS7ur89Ap3Qdm2Xs11ii-37" value="" style="endArrow=classic;html=1;rounded=0;" edge="1" parent="1">
          <mxGeometry width="50" height="50" relative="1" as="geometry">
            <mxPoint x="1440" y="520" as="sourcePoint" />
            <mxPoint x="1430" y="610" as="targetPoint" />
          </mxGeometry>
        </mxCell>
        <mxCell id="CS7ur89Ap3Qdm2Xs11ii-40" value="" style="shape=image;verticalLabelPosition=bottom;labelBackgroundColor=default;verticalAlign=top;aspect=fixed;imageAspect=0;image=data:image/png,iVBORw0KGgoAAAANSUhEUgAAAH4AAAB+CAMAAADV/VW6AAAAZlBMVEX///8AAACXl5eoqKjj4+Pz8/Pm5uYtLS3GxsbX19f7+/sQEBAMDAxjY2O2traxsbGRkZF6enrQ0NBERETt7e0/Pz81NTWioqJqamohISGFhYVPT086OjrAwMAoKChwcHAZGRlbW1vVVig9AAAGVElEQVRoge1ayYKqMBAUJMoi+yYoiP//k4+kE8iKzIzK4VGXkUyTytKpNJ0cDn9BVtfZnyr4C4rUGvEotmHveoug7zYgL67WhOvXByAmvIPrNuRH/FVy70ZIW/y7JT9v3tfIfRsYqdNn0Jb6S+xeTuhsxAoQNMf/BrmfEK7S4Qud+1j0DXYXVttRLo8TR2f+XhSPjRYaQXTG5E3Enr0wz8NvuTwVmklkEXiBlSDeKgvTj4xNRLguLnt2z0z0zi5nhmUo0rz+Nzic0GAgGIowhD/zABDXvL3ZD2Fl59PuGg3EC8bNpiOqO8z+AO2036gCstCcoM8peUYpDADrMNXE8l0uyeqbBvQYkBmf9lnwgsukBQ60NnnLAGRnUdKZF5DKazLoPt12pgbWqkv+DnRoZ6GhXgBD6wx374R/eFKH2SJFao0/AUQ0nNDcZ8fyjxV2wCbH//XrC/5HNTsnccn+L2vwBBr7ONFnKjRP0nUUsnVvkWfnCZOCDC//GCA0w+xiFe8FY1OGOM/dhzVQBpjxaprxjqzOX4oQ6w17RtJ201iNf3jexm5O/aMzfp1mXHbJ9VCE5iIOxSmwrgdCzwNEaO5wRhXjh+RMu1g/HOgXt5sUg1Wq9DT2t66sw0hYKetgEJpKWMdnPDEKPfOQ4PcilAkuNo7zkxOaCTjUbhqVnoVjsghV6z7HmIZLQqNqONQ6aBzbk2a84PeIZXRSRJNxQiPBSYk73tSV7csdpiL06nOMBnNyRGNaOqcKO8VT1zTw3SkSYlHioghFxMWaWWhK0QsUVKk7/l/bKVDh+yxCRL8DswhRF0tZZ3xocbjQ4nOKtfGhrw5m/DFVB071NFRHXWyeL0sUGgO9f7Fyw39l1V0QISWiebVlZsVEH5psDJGQIkJIXl0xcdXK3PWIVHJu8fpf0NSOaMggi5AtBuelOCpMaBYWKl4SqXsOcbuXFBXBtvOUROg+i5DiE7ZsoasW9GB5YRB4ct9CwcNhRXChcmUUGh5+Al+b+evUDnSnmgZpDtNZ15WIZsUejbxouDtrthIaOyRSJDQOAGlZLwnNsDZVEaYrDY+kw6UkQjb5JgsLHwFgKG4ee34Ff7UhjSAe7JlsQ83B2hIXGo5thPaA8u3Y89EV/e5IEY/T09fHD6IeHe4Ws6dOWjSj493/+Fm0DKxV5rXy39NXnvNBYD1fpP88dnojfX+MRURYqyO+AG9SSSRZ4X3SFszGgptkFR/7F/Sl4vl4SIQCbyxQIpHMkoMeXUdR+Ype2b7fSe+/om/aRIRdyvSY6SFZJQ+lTWNBaUtWbbNEb9z9BCvHZCUGSCar9mCCqWIpkK70VpVoZa9qpAByLHbhgL/5LnJmoHhakhl+fkp5dD/BxYFk1iymGrFbdQd/Aqq0o1Xi0tkKz1qpWo2lFeKsOmv5kwDcig+cfe0e4ZdSo1rdkiE7GF+K6ZdTHMSrazZATm1rXRXT3+qYVu3H9c1E39g1m2u3VleHDA/cgw4APCSqGQRo9LsaYnbNVy49bIGHDh5eZLgqjvFkfAMq7uGhNzWS9uXEvVKpVgLAqzn6XuuqpLIz/D4b2NmhH0cvrw4NfIHeeDQd8vTGD/xYoF+V2hPojamYdfSRQL+G3f8c/Zre7/Q7/U6/0+/0O/1Ov9Pv9B+kx6HmcUN6L6TnKNvQT9jpd/qd/nv0KOm2pK9YcuV/1fz/Nb2A0kCg5+6s8cDngXxqqdceecNVkZk+eHlvid7vmum1OWBIFwuJNQ2/w78PiTXTHRcKIa3oW1xbNI28wsPVVDFNK8KQr0or4qRq2LIJ95J0MCVV85bdPkF2m5uSqkOaMMKoxSf2r3O6G6aUPQ29JqGeq/SawW819IuDT27H3a4zwkBzkYNcGq04qyvOBCv3m+px4oKQs8JHcku3cUyHKRL/TW8lXVysDZWZD1MSwxvBqkZKFV8MVtrkM8HoK0Egm+MbL4JVRgsVK+UgTbHCtb/jGFHxILXQ+s0xonp94POHqChzMTK8jXSuiOyJ2fgS7FO2ZOViGa6F98aCZyZZ4XuoISWb+pn1Jmf6JHo6gsUW5BhwsnLcih4+ZPG0Zd6XgV3Dnug/el1GB7QtfSHQF9yB8CLeRT/3Hq9j4Zx7CcG7YLGdzLiFfBp0i9po5U1Xh73a/jpqskP8A4iWg+9wuIsrAAAAAElFTkSuQmCC;" vertex="1" parent="1">
          <mxGeometry x="1400" y="617" width="52" height="52" as="geometry" />
        </mxCell>
        <mxCell id="CS7ur89Ap3Qdm2Xs11ii-41" value="" style="endArrow=classic;html=1;rounded=0;" edge="1" parent="1">
          <mxGeometry width="50" height="50" relative="1" as="geometry">
            <mxPoint x="1420" y="680" as="sourcePoint" />
            <mxPoint x="1070" y="870" as="targetPoint" />
          </mxGeometry>
        </mxCell>
        <mxCell id="CS7ur89Ap3Qdm2Xs11ii-44" value="&lt;font style=&quot;font-size: 14px;&quot;&gt;Оплата &lt;br&gt;товара&lt;/font&gt;" style="text;html=1;align=center;verticalAlign=middle;resizable=0;points=[];autosize=1;strokeColor=none;fillColor=none;" vertex="1" parent="1">
          <mxGeometry x="1391" y="710" width="70" height="50" as="geometry" />
        </mxCell>
        <mxCell id="CS7ur89Ap3Qdm2Xs11ii-46" value="" style="endArrow=classic;html=1;rounded=0;dashed=1;dashPattern=12 12;" edge="1" parent="1">
          <mxGeometry width="50" height="50" relative="1" as="geometry">
            <mxPoint x="120" y="390" as="sourcePoint" />
            <mxPoint x="270" y="270" as="targetPoint" />
          </mxGeometry>
        </mxCell>
        <mxCell id="CS7ur89Ap3Qdm2Xs11ii-47" value="" style="shape=image;verticalLabelPosition=bottom;labelBackgroundColor=default;verticalAlign=top;aspect=fixed;imageAspect=0;image=data:image/png,iVBORw0KGgoAAAANSUhEUgAAAH4AAAB+CAMAAADV/VW6AAAAZlBMVEX///8AAACXl5eoqKjj4+Pz8/Pm5uYtLS3GxsbX19f7+/sQEBAMDAxjY2O2traxsbGRkZF6enrQ0NBERETt7e0/Pz81NTWioqJqamohISGFhYVPT086OjrAwMAoKChwcHAZGRlbW1vVVig9AAAGVElEQVRoge1ayYKqMBAUJMoi+yYoiP//k4+kE8iKzIzK4VGXkUyTytKpNJ0cDn9BVtfZnyr4C4rUGvEotmHveoug7zYgL67WhOvXByAmvIPrNuRH/FVy70ZIW/y7JT9v3tfIfRsYqdNn0Jb6S+xeTuhsxAoQNMf/BrmfEK7S4Qud+1j0DXYXVttRLo8TR2f+XhSPjRYaQXTG5E3Enr0wz8NvuTwVmklkEXiBlSDeKgvTj4xNRLguLnt2z0z0zi5nhmUo0rz+Nzic0GAgGIowhD/zABDXvL3ZD2Fl59PuGg3EC8bNpiOqO8z+AO2036gCstCcoM8peUYpDADrMNXE8l0uyeqbBvQYkBmf9lnwgsukBQ60NnnLAGRnUdKZF5DKazLoPt12pgbWqkv+DnRoZ6GhXgBD6wx374R/eFKH2SJFao0/AUQ0nNDcZ8fyjxV2wCbH//XrC/5HNTsnccn+L2vwBBr7ONFnKjRP0nUUsnVvkWfnCZOCDC//GCA0w+xiFe8FY1OGOM/dhzVQBpjxaprxjqzOX4oQ6w17RtJ201iNf3jexm5O/aMzfp1mXHbJ9VCE5iIOxSmwrgdCzwNEaO5wRhXjh+RMu1g/HOgXt5sUg1Wq9DT2t66sw0hYKetgEJpKWMdnPDEKPfOQ4PcilAkuNo7zkxOaCTjUbhqVnoVjsghV6z7HmIZLQqNqONQ6aBzbk2a84PeIZXRSRJNxQiPBSYk73tSV7csdpiL06nOMBnNyRGNaOqcKO8VT1zTw3SkSYlHioghFxMWaWWhK0QsUVKk7/l/bKVDh+yxCRL8DswhRF0tZZ3xocbjQ4nOKtfGhrw5m/DFVB071NFRHXWyeL0sUGgO9f7Fyw39l1V0QISWiebVlZsVEH5psDJGQIkJIXl0xcdXK3PWIVHJu8fpf0NSOaMggi5AtBuelOCpMaBYWKl4SqXsOcbuXFBXBtvOUROg+i5DiE7ZsoasW9GB5YRB4ct9CwcNhRXChcmUUGh5+Al+b+evUDnSnmgZpDtNZ15WIZsUejbxouDtrthIaOyRSJDQOAGlZLwnNsDZVEaYrDY+kw6UkQjb5JgsLHwFgKG4ee34Ff7UhjSAe7JlsQ83B2hIXGo5thPaA8u3Y89EV/e5IEY/T09fHD6IeHe4Ws6dOWjSj493/+Fm0DKxV5rXy39NXnvNBYD1fpP88dnojfX+MRURYqyO+AG9SSSRZ4X3SFszGgptkFR/7F/Sl4vl4SIQCbyxQIpHMkoMeXUdR+Ype2b7fSe+/om/aRIRdyvSY6SFZJQ+lTWNBaUtWbbNEb9z9BCvHZCUGSCar9mCCqWIpkK70VpVoZa9qpAByLHbhgL/5LnJmoHhakhl+fkp5dD/BxYFk1iymGrFbdQd/Aqq0o1Xi0tkKz1qpWo2lFeKsOmv5kwDcig+cfe0e4ZdSo1rdkiE7GF+K6ZdTHMSrazZATm1rXRXT3+qYVu3H9c1E39g1m2u3VleHDA/cgw4APCSqGQRo9LsaYnbNVy49bIGHDh5eZLgqjvFkfAMq7uGhNzWS9uXEvVKpVgLAqzn6XuuqpLIz/D4b2NmhH0cvrw4NfIHeeDQd8vTGD/xYoF+V2hPojamYdfSRQL+G3f8c/Zre7/Q7/U6/0+/0O/1Ov9Pv9B+kx6HmcUN6L6TnKNvQT9jpd/qd/nv0KOm2pK9YcuV/1fz/Nb2A0kCg5+6s8cDngXxqqdceecNVkZk+eHlvid7vmum1OWBIFwuJNQ2/w78PiTXTHRcKIa3oW1xbNI28wsPVVDFNK8KQr0or4qRq2LIJ95J0MCVV85bdPkF2m5uSqkOaMMKoxSf2r3O6G6aUPQ29JqGeq/SawW819IuDT27H3a4zwkBzkYNcGq04qyvOBCv3m+px4oKQs8JHcku3cUyHKRL/TW8lXVysDZWZD1MSwxvBqkZKFV8MVtrkM8HoK0Egm+MbL4JVRgsVK+UgTbHCtb/jGFHxILXQ+s0xonp94POHqChzMTK8jXSuiOyJ2fgS7FO2ZOViGa6F98aCZyZZ4XuoISWb+pn1Jmf6JHo6gsUW5BhwsnLcih4+ZPG0Zd6XgV3Dnug/el1GB7QtfSHQF9yB8CLeRT/3Hq9j4Zx7CcG7YLGdzLiFfBp0i9po5U1Xh73a/jpqskP8A4iWg+9wuIsrAAAAAElFTkSuQmCC;" vertex="1" parent="1">
          <mxGeometry x="280" y="240" width="52" height="52" as="geometry" />
        </mxCell>
        <mxCell id="CS7ur89Ap3Qdm2Xs11ii-48" value="" style="endArrow=classic;html=1;rounded=0;dashed=1;dashPattern=12 12;" edge="1" parent="1">
          <mxGeometry width="50" height="50" relative="1" as="geometry">
            <mxPoint x="340" y="270" as="sourcePoint" />
            <mxPoint x="650" y="380" as="targetPoint" />
          </mxGeometry>
        </mxCell>
        <mxCell id="CS7ur89Ap3Qdm2Xs11ii-49" value="&lt;font style=&quot;font-size: 14px;&quot;&gt;Оплата счёта&lt;/font&gt;" style="text;html=1;align=center;verticalAlign=middle;resizable=0;points=[];autosize=1;strokeColor=none;fillColor=none;" vertex="1" parent="1">
          <mxGeometry x="255" y="300" width="110" height="30" as="geometry" />
        </mxCell>
      </root>
    </mxGraphModel>
  </diagram>
</mxfile>
